{"title":"Evil Angel: Face Fucking Inc. Megapack Vol. 1-11 [Split Scenes]","uid":12124591,"size":21153344681,"categoryP":"porn","categoryS":"movies","magnet":"?xt=urn:btih:f5677a39ccb8a307505fe5c556681b132212ce91&amp;dn=Evil+Angel%3A+Face+Fucking+Inc.+Megapack+Vol.+1-11+%5BSplit+Scenes%5D&amp;tr=udp%3A%2F%2Ftracker.openbittorrent.com%3A80&amp;tr=udp%3A%2F%2Fopen.demonii.com%3A1337&amp;tr=udp%3A%2F%2Ftracker.coppersurfer.tk%3A6969&amp;tr=udp%3A%2F%2Fexodus.desync.com%3A6969","seeders":1,"leechers":0,"uploader":"HighCode","files":215,"time":1436904328,"description":"Evil Angel: Face Fucking Inc. Megapack Vol. 1-11 [Split Scenes] (Over a 100 scenes)\n\nFace Fucking Inc is a DVD series that has a wide range of porn stars getting, well, facefucked. Some scenes are instant classics. \n\nFormat                                   : AVI\nFormat/Info                              : Audio Video Interleave\nFile size                                : 246 MiB\nDuration                                 : 19mn 35s\nOverall bit rate                         : 1 758 Kbps\nWriting library                          : Boilsoft Joiner build 2411/release\n\nVideo\nID                                       : 0\nFormat                                   : MPEG-4 Visual\nFormat profile                           : Advanced Simple@L5\nFormat settings, BVOP                    : 1\nFormat settings, QPel                    : No\nFormat settings, GMC                     : No warppoints\nFormat settings, Matrix                  : Default (H.263)\nMuxing mode                              : Packed bitstream\nCodec ID                                 : XVID\nCodec ID/Hint                            : XviD\nDuration                                 : 19mn 35s\nBit rate                                 : 1 554 Kbps\nWidth                                    : 512 pixels\nHeight                                   : 384 pixels\nDisplay aspect ratio                     : 4:3\nFrame rate                               : 29.970 fps\nColor space                              : YUV\nChroma subsampling                       : 4:2:0\nBit depth                                : 8 bits\nScan type                                : Progressive\nCompression mode                         : Lossy\nBits/(Pixel*Frame)                       : 0.264\nStream size                              : 218 MiB (88%)\nWriting library                          : XviD 1.1.0 (UTC 2005-11-22)\n\nAudio\nID                                       : 1\nFormat                                   : MPEG Audio\nFormat version                           : Version 1\nFormat profile                           : Layer 3\nCodec ID                                 : 55\nCodec ID/Hint                            : MP3\nDuration                                 : 19mn 35s\nBit rate mode                            : Constant\nBit rate                                 : 192 Kbps\nChannel count                            : 2 channels\nSampling rate                            : 44.1 KHz\nCompression mode                         : Lossy\nDelay relative to video                  : 26ms\nStream size                              : 26.9 MiB (11%)\nAlignment                                : Split accross interleaves\nInterleave, duration                     : 33 ms (1.00 video frame)\nInterleave, preload duration             : 500 ms\nWriting library                          : LAME3.92\n\nScreenshots: &lt;a href=&quot;\nhttp://imgclover.com/image/zmb&quot; rel=&quot;nofollow&quot; target=&quot;_NEW&quot;&gt;\nhttp://imgclover.com/image/zmb&lt;/a&gt; &lt;a href=&quot;\nhttp://imgclover.com/album/h&quot; rel=&quot;nofollow&quot; target=&quot;_NEW&quot;&gt;\nhttp://imgclover.com/album/h&lt;/a&gt;","torrent":{"xt":"urn:btih:f5677a39ccb8a307505fe5c556681b132212ce91","amp;dn":"Evil+Angel%3A+Face+Fucking+Inc.+Megapack+Vol.+1-11+%5BSplit+Scenes%5D","amp;tr":["udp%3A%2F%2Ftracker.openbittorrent.com%3A80","udp%3A%2F%2Fopen.demonii.com%3A1337","udp%3A%2F%2Ftracker.coppersurfer.tk%3A6969","udp%3A%2F%2Fexodus.desync.com%3A6969"],"infoHash":"f5677a39ccb8a307505fe5c556681b132212ce91","infoHashBuffer":{"type":"Buffer","data":[245,103,122,57,204,184,163,7,80,95,229,197,86,104,27,19,34,18,206,145]},"announce":[],"urlList":[]}}